<?xml version="1.0" encoding="UTF-8"?>
<svg version="1.1" xmlns="http://www.w3.org/2000/svg" width="563" height="175">
<path d="M0 0 C2.40815615 0.07267902 4.80921601 0.20388595 7.21481323 0.33511353 C8.80715624 0.36964509 10.39962074 0.39898375 11.99215698 0.42300415 C26.78547337 0.76851286 41.36939372 2.73221944 52.58981323 13.27261353 C55.32741145 17.75494864 55.10166063 22.17038864 54.58981323 27.27261353 C51.74661856 35.1703765 46.00156823 41.11280511 39.58981323 46.27261353 C40.54243042 46.71991821 41.49504761 47.1672229 42.47653198 47.62808228 C43.74372308 48.23821132 45.01063551 48.84891938 46.27731323 49.46011353 C46.90315308 49.75208618 47.52899292 50.04405884 48.17379761 50.34487915 C54.56767238 53.45812708 59.08560269 57.43854217 61.58981323 64.27261353 C62.0006803 67.57552014 62.00927311 70.82300277 61.96481323 74.14761353 C61.97641479 75.00741821 61.98801636 75.8672229 61.99996948 76.75308228 C61.96039127 85.4470962 59.67709927 92.02263223 53.66793823 98.44839478 C47.93457727 103.48125111 41.32851135 105.63908051 33.91793823 106.87417603 C29.68694398 107.59827236 25.65808334 108.91652349 21.58981323 110.27261353 C0.97025126 112.95348755 -22.53147301 112.64932784 -42.41018677 106.27261353 C-41.82144269 102.94171751 -40.77580233 101.23773183 -38.45315552 98.80386353 C-37.84085083 98.15610962 -37.22854614 97.50835571 -36.59768677 96.8409729 C-35.93768677 96.15841431 -35.27768677 95.47585571 -34.59768677 94.77261353 C-33.92350708 94.06427368 -33.24932739 93.35593384 -32.55471802 92.62612915 C-27.92066113 87.77785643 -23.19751248 83.02310039 -18.42874146 78.30776978 C-13.9231064 73.83619794 -9.50729126 69.25796529 -5.85159302 64.05386353 C-5.13809692 63.17214478 -5.13809692 63.17214478 -4.41018677 62.27261353 C-3.75018677 62.27261353 -3.09018677 62.27261353 -2.41018677 62.27261353 C-2.41018677 61.61261353 -2.41018677 60.95261353 -2.41018677 60.27261353 C-4.1813848 60.41394851 -5.95213964 60.56084561 -7.72268677 60.71011353 C-8.70881958 60.79132446 -9.69495239 60.8725354 -10.71096802 60.95620728 C-13.50394276 61.19073912 -13.50394276 61.19073912 -16.41018677 62.27261353 C-18.7669889 62.3565851 -21.12612757 62.3798954 -23.48440552 62.37026978 C-24.51015434 62.36814735 -24.51015434 62.36814735 -25.55662537 62.36598206 C-27.73702399 62.36039229 -29.91731927 62.34784174 -32.09768677 62.33511353 C-33.57750299 62.3300972 -35.05732083 62.32553452 -36.53713989 62.32144165 C-40.16152233 62.31042624 -43.78584446 62.29316865 -47.41018677 62.27261353 C-47.41018677 57.98839746 -45.10411504 55.25923225 -42.84768677 51.77261353 C-42.3945813 51.06298462 -41.94147583 50.35335571 -41.47463989 49.6222229 C-40.55686525 48.1851981 -39.63679233 46.74963844 -38.71438599 45.31558228 C-37.54213914 43.47931091 -36.3936771 41.63154655 -35.25784302 39.77261353 C-34.64811646 38.78261353 -34.03838989 37.79261353 -33.41018677 36.77261353 C-32.60581177 35.45776978 -32.60581177 35.45776978 -31.78518677 34.11636353 C-31.33143677 33.50792603 -30.87768677 32.89948853 -30.41018677 32.27261353 C-29.75018677 32.27261353 -29.09018677 32.27261353 -28.41018677 32.27261353 C-28.22577026 31.3831604 -28.22577026 31.3831604 -28.03762817 30.47573853 C-27.04295084 26.98314387 -24.83840202 24.22221774 -22.78518677 21.27261353 C-21.93488902 20.0461716 -21.08865758 18.81690234 -20.24612427 17.58511353 C-19.7822229 16.93035034 -19.31832153 16.27558716 -18.84036255 15.60098267 C-17.28577144 13.21268481 -17.28577144 13.21268481 -16.13235474 10.12979126 C-12.47978594 1.85794128 -8.72511083 -0.0178772 0 0 Z " fill="#002F92" transform="translate(251.41018676757813,30.727386474609375)"/>
<path d="M0 0 C1.33398821 0.6653553 2.66709901 1.33246936 4 2 C5.54880859 2.76763672 5.54880859 2.76763672 7.12890625 3.55078125 C8.26199219 4.13214844 9.39507812 4.71351562 10.5625 5.3125 C11.69816406 5.88613281 12.83382813 6.45976562 14.00390625 7.05078125 C17.17740102 9.11541474 18.34164224 10.65591884 20 14 C21.25117962 15.92005135 21.25117962 15.92005135 23 17 C25.30745009 16.70670728 25.30745009 16.70670728 28 16 C34.40055463 15.46662045 39.64046059 16.21989263 45 20 C47.60573007 23.34623245 48.81766783 26.63250873 49.375 30.8125 C49 33 49 33 47 36 C47.845625 35.195625 48.69125 34.39125 49.5625 33.5625 C52.8731268 30.79447 55.6372683 30.08389869 60 30 C62 32 62 32 62.125 35.125 C62.08375 36.07375 62.0425 37.0225 62 38 C61.34 38 60.68 38 60 38 C59.67 38.99 59.34 39.98 59 41 C55.9375 42.1875 55.9375 42.1875 53 43 C53.66 43.66 54.32 44.32 55 45 C58.62739339 43.95645907 58.62739339 43.95645907 61.01953125 41.24609375 C61.34308594 40.50488281 61.66664063 39.76367188 62 39 C62.75924894 37.26571558 63.53062418 35.53670173 64.3125 33.8125 C64.70050781 32.93207031 65.08851563 32.05164062 65.48828125 31.14453125 C67 29 67 29 69.66796875 28.19921875 C70.43753906 28.13347656 71.20710938 28.06773438 72 28 C72.79953138 31.28696233 73.09658936 32.71023192 72 36 C72.27571139 38.00875442 72.60235737 40.01178687 73 42 C73.66 42 74.32 42 75 42 C75.0825 41.46375 75.165 40.9275 75.25 40.375 C76.45982851 36.54387639 78.38329235 33.04754276 81.80859375 30.828125 C84.4256428 29.83915103 86.46071706 29.80159782 89.25 29.875 C90.14203125 29.89304687 91.0340625 29.91109375 91.953125 29.9296875 C92.96632813 29.96449219 92.96632813 29.96449219 94 30 C95.23593891 33.70781672 94.5678132 34.67510253 93.0625 38.1875 C92.68222656 39.08855469 92.30195313 39.98960938 91.91015625 40.91796875 C91.45962891 41.94857422 91.45962891 41.94857422 91 43 C91.66 43 92.32 43 93 43 C93.17015625 42.46632812 93.3403125 41.93265625 93.515625 41.3828125 C95.43463324 35.4828829 97.64054239 29.73695531 100 24 C100.66 24 101.32 24 102 24 C102.2475 23.236875 102.495 22.47375 102.75 21.6875 C104.13563292 18.70838921 105.11046627 17.52975315 108 16 C110.16968209 16.24796367 111.44233607 16.44233607 113 18 C113.04063832 19.66617115 113.042721 21.33388095 113 23 C114.65 23.66 116.3 24.32 118 25 C117.38722388 27.96175123 116.74627478 29.38058783 115 32 C118.92939933 30.07934147 118.92939933 30.07934147 121 26.375 C121.33 25.59125 121.66 24.8075 122 24 C124.625 23.1875 124.625 23.1875 127 23 C128.2077558 26.62326739 127.54311128 27.64146369 126 31 C127.80252869 31.70194993 127.80252869 31.70194993 130 32 C131.34187818 31.3507041 132.67479497 30.68268138 134 30 C136.625 29.75 136.625 29.75 139 30 C141 32 141 32 141.4375 34.3125 C140.81061377 38.16337257 138.93362001 39.53309226 136 42 C133.6875 43.3125 133.6875 43.3125 132 44 C136.36795404 44 136.74658993 43.77237852 139.75 41 C140.36359375 40.443125 140.9771875 39.88625 141.609375 39.3125 C142.06828125 38.879375 142.5271875 38.44625 143 38 C143.33 39.32 143.66 40.64 144 42 C143.01 42.33 142.02 42.66 141 43 C140.77376953 43.94552734 140.77376953 43.94552734 140.54296875 44.91015625 C140 47 140 47 138.36328125 48.37109375 C136.23369641 49.47847787 134.32844915 50.39979647 132 51 C128.625 49.75 128.625 49.75 126 48 C123.73917924 47.82850141 123.73917924 47.82850141 121.1875 49.6875 C120.135625 50.120625 119.08375 50.55375 118 51 C115.125 49.6875 115.125 49.6875 113 48 C112.01 48.99 112.01 48.99 111 50 C108 49.625 108 49.625 105 49 C102.3534665 49 100.4191837 49.98139634 98 51 C97.5875 50.505 97.175 50.01 96.75 49.5 C94.87797662 47.56613908 94.87797662 47.56613908 91 48 C91 48.66 91 49.32 91 50 C89.25 50.625 89.25 50.625 87 51 C86.01 50.4740625 86.01 50.4740625 85 49.9375 C84.34 49.628125 83.68 49.31875 83 49 C82.360625 49.350625 81.72125 49.70125 81.0625 50.0625 C80.0415625 50.5265625 80.0415625 50.5265625 79 51 C77.9171875 50.2265625 77.9171875 50.2265625 76.8125 49.4375 C74.17980082 47.69732662 74.17980082 47.69732662 71.85546875 48.56640625 C71.07816406 48.87449219 70.30085938 49.18257812 69.5 49.5 C67.1484375 50.42578125 67.1484375 50.42578125 65 51 C62.125 49.6875 62.125 49.6875 60 48 C59.01 48 58.02 48 57 48 C57 48.66 57 49.32 57 50 C53.71303767 50.79953138 52.28976808 51.09658936 49 50 C49 49.34 49 48.68 49 48 C48.34 48 47.68 48 47 48 C46.34 46.35 45.68 44.7 45 43 C44.278125 43.78375 43.55625 44.5675 42.8125 45.375 C40.12236414 47.88579347 38.37886147 48.78474562 35 50 C36.28583984 50.14695312 36.28583984 50.14695312 37.59765625 50.296875 C49.66113195 51.87451106 49.66113195 51.87451106 55 56 C55.8125 58.1875 55.8125 58.1875 56 60 C56.99 60.495 56.99 60.495 58 61 C57.97061497 67.47939848 56.80173678 71.09043313 52.27734375 75.78515625 C51.85582031 76.18605469 51.43429687 76.58695312 51 77 C51.61875 77.7425 52.2375 78.485 52.875 79.25 C55.24251842 82.31384737 56.75412152 84.48374936 57.375 88.3125 C56.6441387 93.55033932 53.91883749 97.03740835 50.375 100.75 C41.1417817 107.69209714 29.06753066 106.60517082 18.16796875 105.671875 C15 105 15 105 13 102 C13.41435267 99.24155194 13.94056316 96.69761686 14.6328125 94.0078125 C14.8259201 93.22485809 15.01902771 92.44190369 15.21798706 91.63522339 C15.63049272 89.97771116 16.04954786 88.32181732 16.47460938 86.66748047 C17.1196272 84.14600314 17.73693842 81.6188788 18.3515625 79.08984375 C18.75615456 77.4787494 19.16235345 75.86805756 19.5703125 74.2578125 C19.75280548 73.50557404 19.93529846 72.75333557 20.12332153 71.978302 C21.30413176 67.47478381 22.75296704 64.48552046 26 61 C25.45730469 61.27714844 24.91460937 61.55429688 24.35546875 61.83984375 C23.28232422 62.38318359 23.28232422 62.38318359 22.1875 62.9375 C21.12595703 63.47697266 21.12595703 63.47697266 20.04296875 64.02734375 C18 65 18 65 15 66 C14.84236194 71.43970025 14.84236194 71.43970025 15.75 76.75 C16 79 16 79 14.375 81.375 C12 83 12 83 9.4375 82.9375 C6.81500244 81.92884709 5.76021794 81.15356274 4 79 C2.49681871 73.70355585 2.79399419 69.06083687 5 64 C5.66 64 6.32 64 7 64 C7.268125 63.360625 7.53625 62.72125 7.8125 62.0625 C9 60 9 60 12 59 C12 58.34 12 57.68 12 57 C17.39459439 53.91532502 21.79011871 52.44356295 28 52 C28 51.34 28 50.68 28 50 C23.72627918 48.97597422 23.72627918 48.97597422 19.5625 50 C16.11072692 51.3470334 13.57679693 50.70133273 10 50 C9.34 48.35 8.68 46.7 8 45 C10.47692259 42.71360992 11.70466178 42.02362706 15.125 41.75 C18 42 18 42 20 43 C20.20496094 42.38511719 20.40992188 41.77023438 20.62109375 41.13671875 C21.74739583 37.7578125 22.87369792 34.37890625 24 31 C22.68 31.33 21.36 31.66 20 32 C20 32.99 20 33.98 20 35 C15.597254 36.30892449 15.597254 36.30892449 13.1875 35.0625 C11.81794473 32.68379874 11.93375246 31.68884277 12.0625 29 C12.20485287 26.90971317 12.20485287 26.90971317 12 25 C10.11922127 23.08743288 10.11922127 23.08743288 8 22 C8 21.34 8 20.68 8 20 C7.39800781 19.82339844 6.79601562 19.64679687 6.17578125 19.46484375 C2.91940159 17.27248761 2.28635308 14.15659486 1.1875 10.5625 C0.95869141 9.88123047 0.72988281 9.19996094 0.49414062 8.49804688 C-1.13603584 3.40810752 -1.13603584 3.40810752 0 0 Z M25 22 C25.99 22.99 26.98 23.98 28 25 C29.32 23.68 30.64 22.36 32 21 C28.51418144 19.7979936 28.32007656 19.78661563 25 22 Z M36 21 C35.01070539 22.86967605 34.03399531 24.74601378 33.0625 26.625 C32.51722656 27.66914062 31.97195313 28.71328125 31.41015625 29.7890625 C30.03330283 32.92416918 29.40157784 35.61454632 29 39 C28.34 39 27.68 39 27 39 C26.34 41.31 25.68 43.62 25 46 C28.88423904 47.29474635 30.28699157 46.63372371 34 45 C38.49988216 41.44195364 40.85432954 37.56468508 42 32 C42.10620565 28.28280239 41.79062031 25.09999348 39.5625 22 C38.02842666 20.82031543 38.02842666 20.82031543 36 21 Z M107 23 C108 25 108 25 108 25 Z M106 25 C107 27 107 27 107 27 Z M105 27 C106 29 106 29 106 29 Z M108.2734375 29.6796875 C107.33371094 30.76636719 107.33371094 30.76636719 106.375 31.875 C105.74335938 32.59429687 105.11171875 33.31359375 104.4609375 34.0546875 C102.79982877 35.86106933 102.79982877 35.86106933 103 38 C102.34 38 101.68 38 101 38 C100.67 40.31 100.34 42.62 100 45 C103.65979495 43.56417426 104.90668563 41.96050994 106.6875 38.5 C107.10386719 37.7059375 107.52023437 36.911875 107.94921875 36.09375 C108.63380622 34.72966493 109.31744772 33.36510456 110 32 C110.99 31.67 111.98 31.34 113 31 C112.67 30.01 112.34 29.02 112 28 C109.83745483 27.76756336 109.83745483 27.76756336 108.2734375 29.6796875 Z M17 29 C18 31 18 31 18 31 Z M115 33 C114.30300448 34.45381897 113.61766134 35.91322953 112.9375 37.375 C112.55464844 38.18710937 112.17179687 38.99921875 111.77734375 39.8359375 C111.39255859 40.90714844 111.39255859 40.90714844 111 42 C111.33 42.66 111.66 43.32 112 44 C114.72352192 41.15876973 114.72352192 41.15876973 117 38 C116.9593157 35.19514873 116.9593157 35.19514873 116 33 C115.67 33 115.34 33 115 33 Z M56 34 C55.34 35.32 54.68 36.64 54 38 C54.66 38 55.32 38 56 38 C56.33 36.68 56.66 35.36 57 34 C56.67 34 56.34 34 56 34 Z M124 34 C123.32880451 35.4562545 122.66318193 36.91507867 122 38.375 C121.62875 39.18710937 121.2575 39.99921875 120.875 40.8359375 C119.87504987 42.91998433 119.87504987 42.91998433 120 45 C123.69790046 43.76736651 123.9354846 42.79947549 125.6875 39.4375 C126.12449219 38.61121094 126.56148438 37.78492188 127.01171875 36.93359375 C127.50091797 35.97646484 127.50091797 35.97646484 128 35 C126.68 34.67 125.36 34.34 124 34 Z M135 34 C134.01 34.99 133.02 35.98 132 37 C132.33 37.66 132.66 38.32 133 39 C133.99 38.01 134.98 37.02 136 36 C135.67 35.34 135.34 34.68 135 34 Z M86 34 C82.87729874 36.51830747 82.05476902 37.7261549 81.25 41.75 C81.1675 42.8225 81.085 43.895 81 45 C83.33524782 42.74259377 85.18705073 40.7194239 87 38 C86.69159401 35.84725052 86.69159401 35.84725052 86 34 Z M46 39 C47 41 47 41 47 41 Z M66 40 C65.34 41.98 64.68 43.96 64 46 C65.32 45.67 66.64 45.34 68 45 C67.67 43.35 67.34 41.7 67 40 C66.67 40 66.34 40 66 40 Z M30 59 C30.33 59.66 30.66 60.32 31 61 C32.65 61 34.3 61 36 61 C35.68950274 62.43793392 35.3765224 63.8753318 35.0625 65.3125 C34.88847656 66.11300781 34.71445312 66.91351563 34.53515625 67.73828125 C34 70 34 70 33 73 C34.70112992 73.80469849 34.70112992 73.80469849 37 74 C40.20966645 72.65194009 42.53401431 71.46598569 45 69 C45.16677282 65.41656024 45.16677282 65.41656024 45 62 C39.8531808 58.83272665 35.841744 58.64949536 30 59 Z M31 82 C30.01 86.62 29.02 91.24 28 96 C34.9791632 96.6455356 34.9791632 96.6455356 41.125 93.9375 C43.44578136 90.30160921 43.63963923 88.23760989 43 84 C38.7975546 81.19836974 35.99895065 81.85510288 31 82 Z " fill="#071E43" transform="translate(311,18)"/>
<path d="M0 0 C1.17464159 3.52392476 0.7362104 4.63592558 -0.3125 8.125 C-1.33672595 11.65392395 -2.29674079 15.1558721 -3.0625 18.75 C-3.87856152 22.55379089 -4.93105737 26.25870081 -6 30 C-6.53416667 32.32381996 -7.04168359 34.65159517 -7.53515625 36.984375 C-8 39 -8 39 -9 42 C-8.67 42.99 -8.34 43.98 -8 45 C-3.8938694 41.68252079 -2.96240001 38.16492921 -1.9375 33.1875 C-0.77877284 27.79865973 0.68540868 23.01604067 3 18 C6.63 17.67 10.26 17.34 14 17 C15.28829154 20.86487462 14.36217847 22.200239 13 26 C11.5439336 30.9292668 11.5439336 30.9292668 11 36 C10.34 36 9.68 36 9 36 C9.185625 36.53625 9.37125 37.0725 9.5625 37.625 C10.11419324 40.61990614 9.60597444 43.03745829 9 46 C12.03791712 44.05261723 15.02696652 42.04491668 18 40 C18.886875 39.401875 19.77375 38.80375 20.6875 38.1875 C22.3022856 35.49619066 22.02259429 34.64630588 21.4375 31.625 C20.39308293 27.82257139 18.83012195 24.49386918 17 21 C17 20.01 17 19.02 17 18 C20.70389506 16.76536831 24.16708382 16.15938056 28 17 C32 21.6 32 21.6 32 25 C32.763125 24.236875 33.52625 23.47375 34.3125 22.6875 C35.199375 21.800625 36.08625 20.91375 37 20 C37.515625 19.4225 38.03125 18.845 38.5625 18.25 C40.41059253 16.64296302 41.5562477 16.2156252 44 16 C44.804375 16.350625 45.60875 16.70125 46.4375 17.0625 C48.96483991 18.21615697 48.96483991 18.21615697 51.625 17.625 C55.26675161 15.13327521 55.72349281 12.1654445 57 8 C60.63 7.67 64.26 7.34 68 7 C67.67 10.3 67.34 13.6 67 17 C68.98 17 70.96 17 73 17 C74.25541557 20.76624671 73.37061958 22.37188934 72 26 C69.36 26 66.72 26 64 26 C63.86722656 26.80824219 63.73445313 27.61648437 63.59765625 28.44921875 C63.42105469 29.51785156 63.24445313 30.58648437 63.0625 31.6875 C62.88847656 32.74324219 62.71445312 33.79898438 62.53515625 34.88671875 C62 38 62 38 61.30859375 40.76953125 C61.20675781 41.50558594 61.10492188 42.24164063 61 43 C61.66 43.66 62.32 44.32 63 45 C67.15453194 43.15354136 69.17879836 40.85491085 71.0859375 36.73828125 C73.10946906 30.67633414 73.9914095 24.29604979 75 18 C78.3 17.67 81.6 17.34 85 17 C85.99 18.485 85.99 18.485 87 20 C87.37125 19.525625 87.7425 19.05125 88.125 18.5625 C90.70287957 16.41426703 92.68257217 16.20310783 96 16 C98.375 16.9375 98.375 16.9375 100 18 C100 19.65 100 21.3 100 23 C100.9590625 22.1028125 100.9590625 22.1028125 101.9375 21.1875 C107.45543804 17.24611569 112.51269099 15.43690302 119.3125 16.5 C122.70557586 17.3522144 123.8957671 17.90097874 126.5 20.375 C129.83053942 26.20344398 130.91707409 30.23066961 130 37 C127.87504451 43.82174553 125.21532208 49.29471184 119 53 C112.55256308 55.55417693 106.51098059 55.28764183 100 53 C96.60998575 50.54223967 95.09699735 48.02232362 94 44 C93.64219053 38.45395327 94.24915339 34.25253983 96 29 C92.65747276 28.92572162 90.1964086 28.93453047 87 30 C86.07015349 31.91896515 86.07015349 31.91896515 85.5 34.3125 C85.25378906 35.20582031 85.00757813 36.09914062 84.75390625 37.01953125 C83.70189614 41.17851424 82.70010241 45.34870354 81.74609375 49.53125 C81 52 81 52 79 54 C76.6171875 54.1953125 76.6171875 54.1953125 73.875 54.125 C72.96492188 54.10695312 72.05484375 54.08890625 71.1171875 54.0703125 C70.41851562 54.04710937 69.71984375 54.02390625 69 54 C69 53.34 69 52.68 69 52 C68.35933594 52.22816406 67.71867187 52.45632812 67.05859375 52.69140625 C61.68894978 54.47595261 57.60539836 55.64864658 52 54 C49.0625 51.9375 49.0625 51.9375 47 50 C47 50.66 47 51.32 47 52 C41.62444512 54.35769951 37.8171747 55.97564424 32 54 C30.42857959 52.29554929 29.23547589 50.57990523 28.04296875 48.59375 C27.07986226 46.83012745 27.07986226 46.83012745 25 46 C24.72027344 46.49371094 24.44054687 46.98742187 24.15234375 47.49609375 C20.86244312 52.75358768 20.86244312 52.75358768 16.9375 53.875 C14.9884375 53.936875 14.9884375 53.936875 13 54 C12.00613281 54.10957031 11.01226562 54.21914062 9.98828125 54.33203125 C1.41044148 55.27362765 1.41044148 55.27362765 -2 53 C-2 52.34 -2 51.68 -2 51 C-2.47308594 51.30035156 -2.94617188 51.60070312 -3.43359375 51.91015625 C-8.18002649 54.63958638 -11.63915413 55.56901374 -17.078125 54.59375 C-19 54 -19 54 -21.0625 52.5 C-23.5189405 45.94949199 -21.76255228 38.69927341 -20.1015625 32.1328125 C-19.90654144 31.33140839 -19.71152039 30.53000427 -19.5105896 29.70431519 C-19.10021609 28.02757144 -18.68484437 26.3520436 -18.26464844 24.67773438 C-17.62214662 22.11361262 -16.99744557 19.5456185 -16.375 16.9765625 C-15.97238882 15.34089081 -15.56877854 13.70546465 -15.1640625 12.0703125 C-14.97752106 11.30470001 -14.79097961 10.53908752 -14.5987854 9.75027466 C-13.74431846 6.37346452 -12.95119314 3.92678971 -11 1 C-7.34000601 -0.1183315 -3.80466519 -0.08848059 0 0 Z M46 24 C44.51476358 25.43122782 43.03699538 26.87020889 41.5625 28.3125 C40.73878906 29.11300781 39.91507812 29.91351563 39.06640625 30.73828125 C36.80596523 32.90470808 36.80596523 32.90470808 36 36 C36.41638911 38.02076321 36.41638911 38.02076321 37.25 40.0625 C37.50265625 40.75472656 37.7553125 41.44695312 38.015625 42.16015625 C38.99412542 44.33694509 38.99412542 44.33694509 42 46 C46.03604698 44.14560004 47.79798837 42.29268419 49.375 38.1171875 C50.54925967 34.13938288 51.30143451 30.08455351 52 26 C50.02 25.34 48.04 24.68 46 24 Z M98 24 C99 26 99 26 99 26 Z M110.375 27.1875 C106.39149311 32.43848636 106.77907197 37.67900369 107 44 C108.98 44.99 108.98 44.99 111 46 C116.09459528 41.44167791 117.79658896 38.05116554 118.25 31.25 C118.34799261 27.91413169 118.34799261 27.91413169 116 26 C112.2028182 25.60665561 112.2028182 25.60665561 110.375 27.1875 Z " fill="#061E43" transform="translate(390,69)"/>
<path d="M0 0 C0.66 0 1.32 0 2 0 C2 0.66 2 1.32 2 2 C2.825 2.37125 3.65 2.7425 4.5 3.125 C7.17359422 4.55728262 9.63462514 5.97595023 12.125 7.6875 C12.76695312 8.12449219 13.40890625 8.56148437 14.0703125 9.01171875 C19.48499002 14.59080956 20.728059 20.88160841 20.625 28.4375 C20.61243164 29.69373169 20.61243164 29.69373169 20.59960938 30.9753418 C20.35215135 37.71791471 19.01462977 42.25613858 14 47 C13.45472656 47.54398438 12.90945313 48.08796875 12.34765625 48.6484375 C1.43336563 58.05813226 -14.63039406 61.31634832 -28.63671875 61.30078125 C-29.51922806 61.30506638 -30.40173737 61.3093515 -31.31098938 61.31376648 C-33.16556956 61.31946677 -35.02017207 61.32004212 -36.87475586 61.31567383 C-39.66365152 61.31252691 -42.45147023 61.33598243 -45.24023438 61.36132812 C-55.8812025 61.39715869 -65.66435129 60.63399089 -76 58 C-75.2207465 53.76723665 -73.41578752 52.56184064 -70 50 C-69.67 49.34 -69.34 48.68 -69 48 C-68.34 48 -67.68 48 -67 48 C-66.67 47.01 -66.34 46.02 -66 45 C-64.53222656 43.640625 -64.53222656 43.640625 -62.640625 42.25 C-61.94364502 41.72962158 -61.24666504 41.20924316 -60.52856445 40.6730957 C-59.77663818 40.12097412 -59.02471191 39.56885254 -58.25 39 C-52.79229064 34.92084012 -47.45307371 30.78526748 -42.3125 26.3125 C-37.36215123 22.0239085 -32.19956627 18.17274384 -26.82324219 14.43481445 C-23.72944967 12.27555037 -20.83308044 10.05984278 -18.0625 7.5 C-14.56135386 4.64192152 -12.33425034 3.95353507 -8 3 C-7.67 2.67 -7.34 2.34 -7 2 C-4.66702567 1.95907063 -2.33294775 1.95758277 0 2 C0 1.34 0 0.68 0 0 Z " fill="#002F90" transform="translate(291,78)"/>
<path d="M0 0 C1.67316284 0.0314209 1.67316284 0.0314209 3.38012695 0.06347656 C4.58862305 0.07636719 5.79711914 0.08925781 7.04223633 0.10253906 C8.30487305 0.13605469 9.56750977 0.16957031 10.8684082 0.20410156 C12.14264648 0.22214844 13.41688477 0.24019531 14.72973633 0.25878906 C17.88087662 0.30599716 21.03051961 0.37183772 24.1809082 0.45410156 C22.5175189 4.9628247 20.1511926 8.13551404 16.9934082 11.70410156 C15.99205646 12.86048451 14.99205655 14.01803942 13.9934082 15.17675781 C13.5087207 15.73766113 13.0240332 16.29856445 12.5246582 16.87646484 C10.20573994 19.59900296 8.03704381 22.43109459 5.86450195 25.27050781 C3.35568916 28.52439726 0.76193102 31.70902365 -1.8269043 34.89941406 C-4.25895049 38.01815565 -6.53682507 41.22418083 -8.8190918 44.45410156 C-8.02438477 44.42380859 -7.22967773 44.39351562 -6.41088867 44.36230469 C22.76966529 43.26402095 22.76966529 43.26402095 36.1809082 43.45410156 C32.83711968 48.15277582 28.82034671 51.24503942 24.2434082 54.64160156 C22.70425975 55.80164378 21.16519799 56.96180103 19.6262207 58.12207031 C18.48975098 58.97357666 18.48975098 58.97357666 17.33032227 59.84228516 C9.38989679 65.79670235 1.60084404 71.90668993 -6.0690918 78.20410156 C-11.45198012 82.62130598 -16.85831385 86.82796164 -22.8190918 90.45410156 C-21.45485365 87.42829131 -19.89524037 85.24166995 -17.6159668 82.83691406 C-16.97143555 82.15363037 -16.3269043 81.47034668 -15.6628418 80.76635742 C-14.9719043 80.04456299 -14.2809668 79.32276855 -13.5690918 78.57910156 C-12.50948242 77.46257202 -12.50948242 77.46257202 -11.4284668 76.32348633 C-4.68123168 69.24416073 2.21721336 62.31986945 9.1809082 55.45410156 C-1.83113082 55.38740684 -12.81385457 55.5766199 -23.8190918 55.95410156 C-25.28783392 56.00251806 -26.75658394 56.050696 -28.2253418 56.09863281 C-31.75668635 56.21439126 -35.28791532 56.33331168 -38.8190918 56.45410156 C-36.78921854 52.2804073 -34.36422287 48.43271836 -31.8815918 44.51660156 C-31.11987671 43.3128186 -31.11987671 43.3128186 -30.34277344 42.0847168 C-25.21519113 34.01788962 -19.99110576 26.01425607 -14.7565918 18.01660156 C-14.33604523 17.37336945 -13.91549866 16.73013733 -13.48220825 16.06741333 C-12.27191075 14.21737238 -11.05957013 12.36868933 -9.84643555 10.52050781 C-9.14252686 9.44744385 -8.43861816 8.37437988 -7.71337891 7.26879883 C-6.77570679 5.87552368 -6.77570679 5.87552368 -5.8190918 4.45410156 C-5.36888672 3.67703857 -4.91868164 2.89997559 -4.45483398 2.09936523 C-2.8190918 0.45410156 -2.8190918 0.45410156 0 0 Z " fill="#F9F859" transform="translate(245.819091796875,34.5458984375)"/>
<path d="M0 0 C1.8125 0.75 1.8125 0.75 2.8125 1.75 C2.85313832 3.41617115 2.855221 5.08388095 2.8125 6.75 C4.4625 7.41 6.1125 8.07 7.8125 8.75 C7.19972388 11.71175123 6.55877478 13.13058783 4.8125 15.75 C8.74189933 13.82934147 8.74189933 13.82934147 10.8125 10.125 C11.3075 8.949375 11.3075 8.949375 11.8125 7.75 C14.4375 6.9375 14.4375 6.9375 16.8125 6.75 C18.0202558 10.37326739 17.35561128 11.39146369 15.8125 14.75 C17.61502869 15.45194993 17.61502869 15.45194993 19.8125 15.75 C21.15437818 15.1007041 22.48729497 14.43268138 23.8125 13.75 C26.4375 13.5 26.4375 13.5 28.8125 13.75 C30.8125 15.75 30.8125 15.75 31.25 18.0625 C30.62311377 21.91337257 28.74612001 23.28309226 25.8125 25.75 C23.5 27.0625 23.5 27.0625 21.8125 27.75 C26.18045404 27.75 26.55908993 27.52237852 29.5625 24.75 C30.17609375 24.193125 30.7896875 23.63625 31.421875 23.0625 C31.88078125 22.629375 32.3396875 22.19625 32.8125 21.75 C33.3075 23.73 33.3075 23.73 33.8125 25.75 C32.3275 26.245 32.3275 26.245 30.8125 26.75 C30.58626953 27.69552734 30.58626953 27.69552734 30.35546875 28.66015625 C29.8125 30.75 29.8125 30.75 28.17578125 32.12109375 C26.04619641 33.22847787 24.14094915 34.14979647 21.8125 34.75 C18.4375 33.5 18.4375 33.5 15.8125 31.75 C13.55167924 31.57850141 13.55167924 31.57850141 11 33.4375 C9.948125 33.870625 8.89625 34.30375 7.8125 34.75 C4.9375 33.4375 4.9375 33.4375 2.8125 31.75 C1.8225 32.74 1.8225 32.74 0.8125 33.75 C-2.1875 33.375 -2.1875 33.375 -5.1875 32.75 C-7.8340335 32.75 -9.7683163 33.73139634 -12.1875 34.75 C-12.6 34.255 -13.0125 33.76 -13.4375 33.25 C-15.30952338 31.31613908 -15.30952338 31.31613908 -19.1875 31.75 C-19.1875 32.41 -19.1875 33.07 -19.1875 33.75 C-20.9375 34.375 -20.9375 34.375 -23.1875 34.75 C-23.8475 34.399375 -24.5075 34.04875 -25.1875 33.6875 C-25.8475 33.378125 -26.5075 33.06875 -27.1875 32.75 C-27.826875 33.100625 -28.46625 33.45125 -29.125 33.8125 C-29.805625 34.121875 -30.48625 34.43125 -31.1875 34.75 C-31.909375 34.234375 -32.63125 33.71875 -33.375 33.1875 C-36.00769918 31.44732662 -36.00769918 31.44732662 -38.33203125 32.31640625 C-39.10933594 32.62449219 -39.88664062 32.93257812 -40.6875 33.25 C-43.0390625 34.17578125 -43.0390625 34.17578125 -45.1875 34.75 C-48.0625 33.4375 -48.0625 33.4375 -50.1875 31.75 C-51.1775 31.75 -52.1675 31.75 -53.1875 31.75 C-53.1875 32.41 -53.1875 33.07 -53.1875 33.75 C-56.47446233 34.54953138 -57.89773192 34.84658936 -61.1875 33.75 C-61.1875 33.09 -61.1875 32.43 -61.1875 31.75 C-61.8475 31.75 -62.5075 31.75 -63.1875 31.75 C-63.38241452 30.29263913 -63.56819358 28.83405407 -63.75 27.375 C-63.85441406 26.56289063 -63.95882813 25.75078125 -64.06640625 24.9140625 C-64.1875 22.75 -64.1875 22.75 -63.1875 20.75 C-62.424375 20.29625 -61.66125 19.8425 -60.875 19.375 C-58.10589958 17.88161081 -58.10589958 17.88161081 -56.1875 15.5 C-55.5275 14.9225 -54.8675 14.345 -54.1875 13.75 C-49.8875 14.05 -49.8875 14.05 -48.1875 15.75 C-48.14669217 17.74958364 -48.14495644 19.75045254 -48.1875 21.75 C-48.8475 21.75 -49.5075 21.75 -50.1875 21.75 C-50.5175 22.74 -50.8475 23.73 -51.1875 24.75 C-54.25 25.9375 -54.25 25.9375 -57.1875 26.75 C-56.5275 27.41 -55.8675 28.07 -55.1875 28.75 C-51.56010661 27.70645907 -51.56010661 27.70645907 -49.16796875 24.99609375 C-48.84441406 24.25488281 -48.52085937 23.51367188 -48.1875 22.75 C-47.42825106 21.01571558 -46.65687582 19.28670173 -45.875 17.5625 C-45.48699219 16.68207031 -45.09898437 15.80164063 -44.69921875 14.89453125 C-43.1875 12.75 -43.1875 12.75 -40.51953125 11.94921875 C-39.74996094 11.88347656 -38.98039062 11.81773438 -38.1875 11.75 C-37.38796862 15.03696233 -37.09091064 16.46023192 -38.1875 19.75 C-37.91178861 21.75875442 -37.58514263 23.76178687 -37.1875 25.75 C-36.5275 25.75 -35.8675 25.75 -35.1875 25.75 C-35.06375 24.945625 -35.06375 24.945625 -34.9375 24.125 C-33.72767149 20.29387639 -31.80420765 16.79754276 -28.37890625 14.578125 C-25.7618572 13.58915103 -23.72678294 13.55159782 -20.9375 13.625 C-20.04546875 13.64304687 -19.1534375 13.66109375 -18.234375 13.6796875 C-17.22117187 13.71449219 -17.22117187 13.71449219 -16.1875 13.75 C-14.95156109 17.45781672 -15.6196868 18.42510253 -17.125 21.9375 C-17.69541016 23.28908203 -17.69541016 23.28908203 -18.27734375 24.66796875 C-18.57769531 25.35503906 -18.87804687 26.04210937 -19.1875 26.75 C-18.5275 26.75 -17.8675 26.75 -17.1875 26.75 C-17.01734375 26.21632813 -16.8471875 25.68265625 -16.671875 25.1328125 C-14.75286676 19.2328829 -12.54695761 13.48695531 -10.1875 7.75 C-9.5275 7.75 -8.8675 7.75 -8.1875 7.75 C-7.94 6.986875 -7.6925 6.22375 -7.4375 5.4375 C-5.80482126 1.9272407 -4.12172897 -0.47105474 0 0 Z M-3.1875 6.75 C-2.1875 8.75 -2.1875 8.75 -2.1875 8.75 Z M-4.1875 8.75 C-3.1875 10.75 -3.1875 10.75 -3.1875 10.75 Z M-5.1875 10.75 C-4.1875 12.75 -4.1875 12.75 -4.1875 12.75 Z M-1.9140625 13.4296875 C-2.85378906 14.51636719 -2.85378906 14.51636719 -3.8125 15.625 C-4.44414062 16.34429687 -5.07578125 17.06359375 -5.7265625 17.8046875 C-7.38767123 19.61106933 -7.38767123 19.61106933 -7.1875 21.75 C-7.8475 21.75 -8.5075 21.75 -9.1875 21.75 C-9.5175 24.06 -9.8475 26.37 -10.1875 28.75 C-6.52770505 27.31417426 -5.28081437 25.71050994 -3.5 22.25 C-3.08363281 21.4559375 -2.66726563 20.661875 -2.23828125 19.84375 C-1.55369378 18.47966493 -0.87005228 17.11510456 -0.1875 15.75 C0.8025 15.42 1.7925 15.09 2.8125 14.75 C2.4825 13.76 2.1525 12.77 1.8125 11.75 C-0.35004517 11.51756336 -0.35004517 11.51756336 -1.9140625 13.4296875 Z M4.8125 16.75 C4.11550448 18.20381897 3.43016134 19.66322953 2.75 21.125 C2.36714844 21.93710937 1.98429687 22.74921875 1.58984375 23.5859375 C1.20505859 24.65714844 1.20505859 24.65714844 0.8125 25.75 C1.1425 26.41 1.4725 27.07 1.8125 27.75 C4.53602192 24.90876973 4.53602192 24.90876973 6.8125 21.75 C6.7718157 18.94514873 6.7718157 18.94514873 5.8125 16.75 C5.4825 16.75 5.1525 16.75 4.8125 16.75 Z M-54.1875 17.75 C-54.8475 19.07 -55.5075 20.39 -56.1875 21.75 C-55.5275 21.75 -54.8675 21.75 -54.1875 21.75 C-53.8575 20.43 -53.5275 19.11 -53.1875 17.75 C-53.5175 17.75 -53.8475 17.75 -54.1875 17.75 Z M13.8125 17.75 C13.14130451 19.2062545 12.47568193 20.66507867 11.8125 22.125 C11.44125 22.93710937 11.07 23.74921875 10.6875 24.5859375 C9.68754987 26.66998433 9.68754987 26.66998433 9.8125 28.75 C13.51040046 27.51736651 13.7479846 26.54947549 15.5 23.1875 C15.93699219 22.36121094 16.37398438 21.53492188 16.82421875 20.68359375 C17.31341797 19.72646484 17.31341797 19.72646484 17.8125 18.75 C16.4925 18.42 15.1725 18.09 13.8125 17.75 Z M24.8125 17.75 C23.8225 18.74 22.8325 19.73 21.8125 20.75 C22.1425 21.41 22.4725 22.07 22.8125 22.75 C23.8025 21.76 24.7925 20.77 25.8125 19.75 C25.4825 19.09 25.1525 18.43 24.8125 17.75 Z M-24.1875 17.75 C-27.31020126 20.26830747 -28.13273098 21.4761549 -28.9375 25.5 C-29.02 26.5725 -29.1025 27.645 -29.1875 28.75 C-26.85225218 26.49259377 -25.00044927 24.4694239 -23.1875 21.75 C-23.49590599 19.59725052 -23.49590599 19.59725052 -24.1875 17.75 Z M-44.1875 23.75 C-44.8475 25.73 -45.5075 27.71 -46.1875 29.75 C-44.8675 29.42 -43.5475 29.09 -42.1875 28.75 C-42.5175 27.1 -42.8475 25.45 -43.1875 23.75 C-43.5175 23.75 -43.8475 23.75 -44.1875 23.75 Z " fill="#031B3C" transform="translate(421.1875,34.25)"/>
<path d="M0 0 C2.40815615 0.07267902 4.80921601 0.20388595 7.21481323 0.33511353 C8.80715624 0.36964509 10.39962074 0.39898375 11.99215698 0.42300415 C26.78547337 0.76851286 41.36939372 2.73221944 52.58981323 13.27261353 C55.32741145 17.75494864 55.10166063 22.17038864 54.58981323 27.27261353 C52.26469475 33.73127598 47.61521599 39.84649954 42.21481323 44.08511353 C41.34856323 44.80698853 40.48231323 45.52886353 39.58981323 46.27261353 C39.58981323 47.26261353 39.58981323 48.25261353 39.58981323 49.27261353 C38.47606323 49.39636353 37.36231323 49.52011353 36.21481323 49.64761353 C32.55877646 49.91919483 32.55877646 49.91919483 30.58981323 52.27261353 C28.46481323 51.89761353 28.46481323 51.89761353 26.58981323 51.27261353 C27.57981323 50.28261353 28.56981323 49.29261353 29.58981323 48.27261353 C15.06981323 48.27261353 0.54981323 48.27261353 -14.41018677 48.27261353 C-12.79280953 45.03785904 -11.93389454 43.56689332 -9.41018677 41.27261353 C-9.74018677 42.92261353 -10.07018677 44.57261353 -10.41018677 46.27261353 C-4.78667263 46.15428383 0.83666772 46.03002958 6.45993042 45.90029907 C8.37265469 45.85700496 10.28541624 45.81532597 12.19821167 45.77529907 C14.94865141 45.71746272 17.69890451 45.65380676 20.44918823 45.58901978 C21.30349426 45.57230728 22.15780029 45.55559479 23.03799438 45.53837585 C23.83852234 45.51843063 24.63905029 45.49848541 25.46383667 45.47793579 C26.16554993 45.46239151 26.86726318 45.44684723 27.59024048 45.43083191 C29.61227557 45.32672363 29.61227557 45.32672363 31.61331177 44.76368713 C34.59814053 44.02208858 37.5307432 44.21378526 40.58981323 44.27261353 C40.69293823 43.63323853 40.79606323 42.99386353 40.90231323 42.33511353 C41.12918823 41.65448853 41.35606323 40.97386353 41.58981323 40.27261353 C42.57981323 39.94261353 43.56981323 39.61261353 44.58981323 39.27261353 C44.96701227 37.95101987 45.29502521 36.61499533 45.58981323 35.27261353 C46.41537407 34.10600133 47.27211094 32.9610703 48.15231323 31.83511353 C51.74993544 26.38699024 51.02102929 20.55878536 50.58981323 14.27261353 C43.8536641 10.82275348 37.02968254 8.56650384 29.58981323 7.27261353 C27.82637573 6.93230103 27.82637573 6.93230103 26.02731323 6.58511353 C21.1507774 7.56042069 19.37620304 10.38560735 16.38668823 14.20620728 C14.58981323 16.27261353 14.58981323 16.27261353 11.58981323 17.27261353 C9.90442722 19.26926667 9.90442722 19.26926667 8.58981323 21.27261353 C7.92981323 20.94261353 7.26981323 20.61261353 6.58981323 20.27261353 C7.37227417 19.28519165 8.15473511 18.29776978 8.96090698 17.28042603 C9.98313537 15.98622862 11.00526571 14.69195376 12.02731323 13.39761353 C12.54358276 12.74663696 13.05985229 12.0956604 13.59176636 11.42495728 C14.33136597 10.48716431 14.33136597 10.48716431 15.08590698 9.53042603 C15.54151001 8.95437622 15.99711304 8.37832642 16.46652222 7.78482056 C17.67163486 6.25425701 17.67163486 6.25425701 18.58981323 4.27261353 C9.53350438 2.51638839 0.24371874 1.56295861 -8.41018677 5.27261353 C-16.88744545 12.18850571 -21.99973236 23.52185874 -27.0708313 32.99575806 C-29.44452577 37.40119867 -32.02833073 41.65575027 -34.68753052 45.89370728 C-35.08621841 46.53260391 -35.48490631 47.17150055 -35.89567566 47.82975769 C-38.58531627 52.09157811 -41.45067785 56.19366242 -44.41018677 60.27261353 C-43.52983765 60.21202759 -42.64948853 60.15144165 -41.74246216 60.08901978 C-9.43391164 57.89245231 -9.43391164 57.89245231 4.58981323 58.27261353 C-0.60598619 64.51906433 -6.2524974 70.17883864 -12.04495239 75.86831665 C-20.1975242 83.43179575 -20.1975242 83.43179575 -26.478302 92.44229126 C-27.41018677 94.27261353 -27.41018677 94.27261353 -29.41018677 95.27261353 C-29.69893677 95.89136353 -29.98768677 96.51011353 -30.28518677 97.14761353 C-31.60992006 99.64988751 -33.16288082 100.6052575 -35.41018677 102.27261353 C-35.74018677 103.26261353 -36.07018677 104.25261353 -36.41018677 105.27261353 C-35.66253052 105.33319946 -34.91487427 105.3937854 -34.14456177 105.45620728 C-32.66729614 105.58189087 -32.66729614 105.58189087 -31.16018677 105.71011353 C-29.69838989 105.83192993 -29.69838989 105.83192993 -28.20706177 105.95620728 C-25.41018677 106.27261353 -25.41018677 106.27261353 -23.49282837 106.78231812 C-21.35584627 107.28540636 -19.48330501 107.41239439 -17.29104614 107.43374634 C-16.08829041 107.44815765 -16.08829041 107.44815765 -14.86123657 107.46286011 C-14.00082764 107.46710999 -13.1404187 107.47135986 -12.25393677 107.47573853 C-11.35582275 107.4814386 -10.45770874 107.48713867 -9.53237915 107.49301147 C-7.6293556 107.50245198 -5.72631577 107.50899168 -3.82327271 107.5128479 C-0.94829626 107.52248577 1.92594402 107.55348966 4.80075073 107.58511353 C14.46205337 107.64170702 23.35378711 107.47121296 32.58981323 104.27261353 C33.31571655 104.03752075 34.04161987 103.80242798 34.78952026 103.56021118 C44.54765995 100.2442002 52.60709503 96.62713828 57.76290894 87.31289673 C59.28490732 83.55755558 59.16606766 79.83529385 59.08981323 75.83511353 C59.11301636 74.62371704 59.11301636 74.62371704 59.13668823 73.3878479 C59.0929984 66.61046255 57.3960026 61.21513598 52.66012573 56.24917603 C48.74650814 53.53007625 45.28646206 51.44677573 40.58981323 50.27261353 C41.24981323 49.28261353 41.90981323 48.29261353 42.58981323 47.27261353 C51.02675275 51.57234978 57.88864536 55.11273996 61.58981323 64.27261353 C62.01596511 67.57348484 62.0092671 70.82345221 61.96481323 74.14761353 C61.97641479 75.00741821 61.98801636 75.8672229 61.99996948 76.75308228 C61.96039127 85.4470962 59.67709927 92.02263223 53.66793823 98.44839478 C47.93457727 103.48125111 41.32851135 105.63908051 33.91793823 106.87417603 C29.68694398 107.59827236 25.65808334 108.91652349 21.58981323 110.27261353 C0.97025126 112.95348755 -22.53147301 112.64932784 -42.41018677 106.27261353 C-41.82144269 102.94171751 -40.77580233 101.23773183 -38.45315552 98.80386353 C-37.84085083 98.15610962 -37.22854614 97.50835571 -36.59768677 96.8409729 C-35.93768677 96.15841431 -35.27768677 95.47585571 -34.59768677 94.77261353 C-33.92350708 94.06427368 -33.24932739 93.35593384 -32.55471802 92.62612915 C-27.92066113 87.77785643 -23.19751248 83.02310039 -18.42874146 78.30776978 C-13.9231064 73.83619794 -9.50729126 69.25796529 -5.85159302 64.05386353 C-5.13809692 63.17214478 -5.13809692 63.17214478 -4.41018677 62.27261353 C-3.75018677 62.27261353 -3.09018677 62.27261353 -2.41018677 62.27261353 C-2.41018677 61.61261353 -2.41018677 60.95261353 -2.41018677 60.27261353 C-4.1813848 60.41394851 -5.95213964 60.56084561 -7.72268677 60.71011353 C-8.70881958 60.79132446 -9.69495239 60.8725354 -10.71096802 60.95620728 C-13.50394276 61.19073912 -13.50394276 61.19073912 -16.41018677 62.27261353 C-18.7669889 62.3565851 -21.12612757 62.3798954 -23.48440552 62.37026978 C-24.51015434 62.36814735 -24.51015434 62.36814735 -25.55662537 62.36598206 C-27.73702399 62.36039229 -29.91731927 62.34784174 -32.09768677 62.33511353 C-33.57750299 62.3300972 -35.05732083 62.32553452 -36.53713989 62.32144165 C-40.16152233 62.31042624 -43.78584446 62.29316865 -47.41018677 62.27261353 C-47.41018677 57.98839746 -45.10411504 55.25923225 -42.84768677 51.77261353 C-42.3945813 51.06298462 -41.94147583 50.35335571 -41.47463989 49.6222229 C-40.55686525 48.1851981 -39.63679233 46.74963844 -38.71438599 45.31558228 C-37.54213914 43.47931091 -36.3936771 41.63154655 -35.25784302 39.77261353 C-34.64811646 38.78261353 -34.03838989 37.79261353 -33.41018677 36.77261353 C-32.60581177 35.45776978 -32.60581177 35.45776978 -31.78518677 34.11636353 C-31.33143677 33.50792603 -30.87768677 32.89948853 -30.41018677 32.27261353 C-29.75018677 32.27261353 -29.09018677 32.27261353 -28.41018677 32.27261353 C-28.22577026 31.3831604 -28.22577026 31.3831604 -28.03762817 30.47573853 C-27.04295084 26.98314387 -24.83840202 24.22221774 -22.78518677 21.27261353 C-21.93488902 20.0461716 -21.08865758 18.81690234 -20.24612427 17.58511353 C-19.7822229 16.93035034 -19.31832153 16.27558716 -18.84036255 15.60098267 C-17.28577144 13.21268481 -17.28577144 13.21268481 -16.13235474 10.12979126 C-12.47978594 1.85794128 -8.72511083 -0.0178772 0 0 Z " fill="#000312" transform="translate(251.41018676757813,30.727386474609375)"/>
<path d="M0 0 C1.33398821 0.6653553 2.66709901 1.33246936 4 2 C5.54880859 2.76763672 5.54880859 2.76763672 7.12890625 3.55078125 C8.26199219 4.13214844 9.39507812 4.71351562 10.5625 5.3125 C11.69816406 5.88613281 12.83382813 6.45976562 14.00390625 7.05078125 C17.17740102 9.11541474 18.34164224 10.65591884 20 14 C21.25117962 15.92005135 21.25117962 15.92005135 23 17 C25.30745009 16.70670728 25.30745009 16.70670728 28 16 C34.40055463 15.46662045 39.64046059 16.21989263 45 20 C47.60573007 23.34623245 48.81766783 26.63250873 49.375 30.8125 C49 33 49 33 47 36 C48.98 34.35 50.96 32.7 53 31 C53.66 31.33 54.32 31.66 55 32 C52.75 34.5 52.75 34.5 50 37 C48.68 37 47.36 37 46 37 C45.9071875 38.3303125 45.9071875 38.3303125 45.8125 39.6875 C44.79442141 43.83812812 43.27902029 45.31716522 40 48 C37.1875 49.3125 37.1875 49.3125 35 50 C35 50.66 35 51.32 35 52 C32.69 52 30.38 52 28 52 C28 51.34 28 50.68 28 50 C23.72627918 48.97597422 23.72627918 48.97597422 19.5625 50 C16.11072692 51.3470334 13.57679693 50.70133273 10 50 C9.34 48.35 8.68 46.7 8 45 C10.47692259 42.71360992 11.70466178 42.02362706 15.125 41.75 C18 42 18 42 20 43 C20.20496094 42.38511719 20.40992188 41.77023438 20.62109375 41.13671875 C21.74739583 37.7578125 22.87369792 34.37890625 24 31 C22.68 31.33 21.36 31.66 20 32 C20 32.99 20 33.98 20 35 C15.597254 36.30892449 15.597254 36.30892449 13.1875 35.0625 C11.81794473 32.68379874 11.93375246 31.68884277 12.0625 29 C12.20485287 26.90971317 12.20485287 26.90971317 12 25 C10.11922127 23.08743288 10.11922127 23.08743288 8 22 C8 21.34 8 20.68 8 20 C7.39800781 19.82339844 6.79601562 19.64679687 6.17578125 19.46484375 C2.91940159 17.27248761 2.28635308 14.15659486 1.1875 10.5625 C0.95869141 9.88123047 0.72988281 9.19996094 0.49414062 8.49804688 C-1.13603584 3.40810752 -1.13603584 3.40810752 0 0 Z M25 22 C25.99 22.99 26.98 23.98 28 25 C29.32 23.68 30.64 22.36 32 21 C28.51418144 19.7979936 28.32007656 19.78661563 25 22 Z M36 21 C35.01070539 22.86967605 34.03399531 24.74601378 33.0625 26.625 C32.51722656 27.66914062 31.97195313 28.71328125 31.41015625 29.7890625 C30.03330283 32.92416918 29.40157784 35.61454632 29 39 C28.34 39 27.68 39 27 39 C26.34 41.31 25.68 43.62 25 46 C28.88423904 47.29474635 30.28699157 46.63372371 34 45 C38.49988216 41.44195364 40.85432954 37.56468508 42 32 C42.10620565 28.28280239 41.79062031 25.09999348 39.5625 22 C38.02842666 20.82031543 38.02842666 20.82031543 36 21 Z M17 29 C18 31 18 31 18 31 Z " fill="#031B3C" transform="translate(311,18)"/>
<path d="M0 0 C4.46163806 -0.07524167 8.92292117 -0.12910583 13.38500977 -0.16479492 C14.89679411 -0.17970277 16.40853663 -0.20003634 17.92016602 -0.22631836 C33.34518638 -0.4874123 48.20150275 0.91656319 60 12 C62.73759822 16.48233511 62.5118474 20.89777512 62 26 C59.67488152 32.45866245 55.02540276 38.57388601 49.625 42.8125 C48.75875 43.534375 47.8925 44.25625 47 45 C47 45.99 47 46.98 47 48 C45.329375 48.185625 45.329375 48.185625 43.625 48.375 C39.96896323 48.6465813 39.96896323 48.6465813 38 51 C35.875 50.625 35.875 50.625 34 50 C34.99 49.01 35.98 48.02 37 47 C22.48 47 7.96 47 -7 47 C-5.38262276 43.76524552 -4.52370777 42.29427979 -2 40 C-2.495 42.475 -2.495 42.475 -3 45 C2.62351414 44.8816703 8.24685448 44.75741605 13.87011719 44.62768555 C15.78284146 44.58439143 17.695603 44.54271244 19.60839844 44.50268555 C22.35883818 44.4448492 25.10909128 44.38119324 27.859375 44.31640625 C28.71368103 44.29969376 29.56798706 44.28298126 30.44818115 44.26576233 C31.24870911 44.24581711 32.04923706 44.22587189 32.87402344 44.20532227 C33.57573669 44.18977798 34.27744995 44.1742337 35.00042725 44.15821838 C37.02246234 44.0541101 37.02246234 44.0541101 39.02349854 43.49107361 C42.00832729 42.74947505 44.94092997 42.94117173 48 43 C48.103125 42.360625 48.20625 41.72125 48.3125 41.0625 C48.539375 40.381875 48.76625 39.70125 49 39 C49.99 38.67 50.98 38.34 52 38 C52.37719903 36.67840635 52.70521198 35.34238181 53 34 C53.82556084 32.8333878 54.68229771 31.68845677 55.5625 30.5625 C59.16012221 25.11437671 58.43121606 19.28617183 58 13 C51.26385087 9.55013996 44.4398693 7.29389031 37 6 C35.824375 5.773125 34.64875 5.54625 33.4375 5.3125 C28.56096417 6.28780717 26.78638981 9.11299382 23.796875 12.93359375 C22 15 22 15 19 16 C17.31461399 17.99665314 17.31461399 17.99665314 16 20 C15.34 19.67 14.68 19.34 14 19 C14.78246094 18.01257813 15.56492187 17.02515625 16.37109375 16.0078125 C17.39332214 14.71361509 18.41545247 13.41934024 19.4375 12.125 C19.95376953 11.47402344 20.47003906 10.82304688 21.00195312 10.15234375 C21.49501953 9.52714844 21.98808594 8.90195312 22.49609375 8.2578125 C22.95169678 7.6817627 23.4072998 7.10571289 23.87670898 6.51220703 C25.08182163 4.98164349 25.08182163 4.98164349 26 3 C17.09 3 8.18 3 -1 3 C-0.67 2.01 -0.34 1.02 0 0 Z " fill="#000517" transform="translate(244,32)"/>
<path d="M0 0 C1.33398821 0.6653553 2.66709901 1.33246936 4 2 C5.54880859 2.76763672 5.54880859 2.76763672 7.12890625 3.55078125 C8.26199219 4.13214844 9.39507812 4.71351562 10.5625 5.3125 C11.69816406 5.88613281 12.83382813 6.45976562 14.00390625 7.05078125 C18.63491428 10.06365349 20.12527826 13.95267225 22 19 C19.45898365 21.23205903 16.93612234 23.30901102 14 25 C11.0625 24.5625 11.0625 24.5625 9 23 C8.67 22.01 8.34 21.02 8 20 C7.06607422 19.64228516 7.06607422 19.64228516 6.11328125 19.27734375 C2.81517572 17.28384928 2.25973406 14.06953018 1.1875 10.5625 C0.95869141 9.88123047 0.72988281 9.19996094 0.49414062 8.49804688 C-1.13603584 3.40810752 -1.13603584 3.40810752 0 0 Z " fill="#BD9C62" transform="translate(311,18)"/>
<path d="M0 0 C0.99 0 1.98 0 3 0 C1.40393636 4.52796317 -0.94057839 8.34802012 -3.5 12.375 C-3.94214844 13.07689453 -4.38429687 13.77878906 -4.83984375 14.50195312 C-8.21899567 19.83871572 -11.70694525 25.09775298 -15.23706055 30.33544922 C-18.79212831 35.63070624 -22.17992665 41.02199825 -25.51367188 46.45898438 C-28.17454205 50.77451332 -31.01546071 54.90088055 -34 59 C-33.39953857 58.9285376 -32.79907715 58.8570752 -32.18041992 58.78344727 C-23.55328645 57.86906535 -14.97325245 57.88623005 -6.3125 57.9375 C-4.82096506 57.94252856 -3.32942846 57.94708905 -1.83789062 57.95117188 C1.77477462 57.96206196 5.38737632 57.97925064 9 58 C9 58.33 9 58.66 9 59 C8.16855469 59.06058594 7.33710938 59.12117188 6.48046875 59.18359375 C5.39378906 59.26738281 4.30710938 59.35117188 3.1875 59.4375 C2.10855469 59.51871094 1.02960938 59.59992188 -0.08203125 59.68359375 C-3.05989905 59.90212461 -3.05989905 59.90212461 -6 61 C-8.35680213 61.08397157 -10.71594081 61.10728187 -13.07421875 61.09765625 C-14.09996758 61.09553383 -14.09996758 61.09553383 -15.1464386 61.09336853 C-17.32683722 61.08777876 -19.50713251 61.07522822 -21.6875 61.0625 C-23.16731622 61.05748367 -24.64713406 61.052921 -26.12695312 61.04882812 C-29.75133557 61.03781271 -33.3756577 61.02055512 -37 61 C-37 56.71578393 -34.69392827 53.98661872 -32.4375 50.5 C-31.98439453 49.79037109 -31.53128906 49.08074219 -31.06445312 48.34960938 C-30.14667848 46.91258458 -29.22660557 45.47702492 -28.30419922 44.04296875 C-27.13195237 42.20669739 -25.98349033 40.35893303 -24.84765625 38.5 C-24.23792969 37.51 -23.62820312 36.52 -23 35.5 C-22.195625 34.18515625 -22.195625 34.18515625 -21.375 32.84375 C-20.92125 32.2353125 -20.4675 31.626875 -20 31 C-19.34 31 -18.68 31 -18 31 C-17.8155835 30.11054687 -17.8155835 30.11054687 -17.62744141 29.203125 C-16.63258031 25.70988512 -14.42653626 22.95116845 -12.375 20 C-8.38941848 14.18492436 -4.80653924 8.3148975 -1.47265625 2.09765625 C-0.98667969 1.40542969 -0.50070313 0.71320312 0 0 Z " fill="#0F0F06" transform="translate(241,32)"/>
<path d="M0 0 C1.65 0 3.3 0 5 0 C6 3 6 3 5.07421875 5.26953125 C4.61660156 6.10871094 4.15898437 6.94789062 3.6875 7.8125 C1.7526423 11.48335503 0.15855633 14.99771448 -1 19 C-1.66 19 -2.32 19 -3 19 C-3.33 20.65 -3.66 22.3 -4 24 C-4.99 24.33 -5.98 24.66 -7 25 C-7 25.66 -7 26.32 -7 27 C-7.66 27 -8.32 27 -9 27 C-9.33 27.99 -9.66 28.98 -10 30 C-15.28497409 31.05699482 -15.28497409 31.05699482 -18 31 C-20.5 29.0625 -20.5 29.0625 -22 27 C-20.25 23.125 -20.25 23.125 -18 22 C-12.46153846 21.76923077 -12.46153846 21.76923077 -10 23 C-9.80664062 22.41992188 -9.61328125 21.83984375 -9.4140625 21.2421875 C-7.94270833 16.828125 -6.47135417 12.4140625 -5 8 C-4.34 8 -3.68 8 -3 8 C-2.71125 7.195625 -2.4225 6.39125 -2.125 5.5625 C-1 3 -1 3 1 2 C0.67 1.34 0.34 0.68 0 0 Z " fill="#031B3A" transform="translate(341,38)"/>
<path d="M0 0 C-0.375 1.9375 -0.375 1.9375 -1 4 C-1.99 4.495 -1.99 4.495 -3 5 C-2.649375 5.61875 -2.29875 6.2375 -1.9375 6.875 C-1.628125 7.57625 -1.31875 8.2775 -1 9 C-1.33 9.66 -1.66 10.32 -2 11 C-2.66 11 -3.32 11 -4 11 C-4.33 11.99 -4.66 12.98 -5 14 C-7.0625 14.6875 -7.0625 14.6875 -9 15 C-9 15.99 -9 16.98 -9 18 C-11.3125 18.6875 -11.3125 18.6875 -14 19 C-15.8125 17.9375 -15.8125 17.9375 -17 16 C-17.73252585 11.87954212 -17.24678564 10.36292006 -14.875 6.875 C-10.46026111 2.14936401 -6.66960219 -0.63520021 0 0 Z M-12 12 C-11 14 -11 14 -11 14 Z " fill="#072040" transform="translate(340,35)"/>
<path d="M0 0 C8.91 0 17.82 0 27 0 C27.33 0.99 27.66 1.98 28 3 C29.60875 2.9071875 29.60875 2.9071875 31.25 2.8125 C37.23760263 2.8125 45.21140555 3.58713196 49.85546875 7.60546875 C50.23316406 8.06566406 50.61085938 8.52585937 51 9 C49.41642541 8.68872484 47.83315007 8.37592711 46.25 8.0625 C45.36828125 7.88847656 44.4865625 7.71445312 43.578125 7.53515625 C41.36709327 7.07619966 39.18896499 6.55180159 37 6 C33.67186676 5.16466118 33.67186676 5.16466118 30 6 C27.67605437 8.15733923 25.7500457 10.4374416 23.796875 12.93359375 C22 15 22 15 19 16 C17.31461399 17.99665314 17.31461399 17.99665314 16 20 C15.34 19.67 14.68 19.34 14 19 C14.78246094 18.01257813 15.56492187 17.02515625 16.37109375 16.0078125 C17.39332214 14.71361509 18.41545247 13.41934024 19.4375 12.125 C19.95376953 11.47402344 20.47003906 10.82304688 21.00195312 10.15234375 C21.49501953 9.52714844 21.98808594 8.90195312 22.49609375 8.2578125 C22.95169678 7.6817627 23.4072998 7.10571289 23.87670898 6.51220703 C25.08182163 4.98164349 25.08182163 4.98164349 26 3 C17.09 3 8.18 3 -1 3 C-0.67 2.01 -0.34 1.02 0 0 Z " fill="#0E285D" transform="translate(244,32)"/>
<path d="M0 0 C5.61 0 11.22 0 17 0 C11.80420058 6.2464508 6.15768936 11.90622511 0.36523438 17.59570312 C-7.78733743 25.15918222 -7.78733743 25.15918222 -14.06811523 34.16967773 C-15 36 -15 36 -17 37 C-18.13350534 39.01669827 -18.13350534 39.01669827 -19 41 C-19.99 40.67 -20.98 40.34 -22 40 C-22.495 38.515 -22.495 38.515 -23 37 C-22.40050537 36.40574219 -21.80101074 35.81148437 -21.18334961 35.19921875 C-18.92425473 32.95733893 -16.66755127 30.71308469 -14.41235352 28.46728516 C-13.44257727 27.50248541 -12.4718993 26.53859105 -11.50024414 25.57568359 C-1.87702705 16.19820528 -1.87702705 16.19820528 6.56274414 5.77734375 C7.03703857 5.19082031 7.51133301 4.60429688 8 4 C8.66 4 9.32 4 10 4 C10 3.34 10 2.68 10 2 C6.7 1.67 3.4 1.34 0 1 C0 0.67 0 0.34 0 0 Z " fill="#1E1B11" transform="translate(239,89)"/>
<path d="M0 0 C0.33 0.66 0.66 1.32 1 2 C1.66 2.33 2.32 2.66 3 3 C2.2884375 3.6496875 2.2884375 3.6496875 1.5625 4.3125 C-0.23686957 6.02309613 -0.23686957 6.02309613 -1 9 C-0.25234375 9.06058594 0.4953125 9.12117187 1.265625 9.18359375 C2.25046875 9.26738281 3.2353125 9.35117188 4.25 9.4375 C5.71179688 9.55931641 5.71179688 9.55931641 7.203125 9.68359375 C10 10 10 10 11.69921875 10.5 C14.98321271 11.21366932 18.26274479 11.23664104 21.609375 11.31640625 C22.33618469 11.33718735 23.06299438 11.35796844 23.81182861 11.37937927 C26.12445991 11.44455512 28.43720093 11.5036104 30.75 11.5625 C32.32162575 11.60571566 33.89324056 11.64933092 35.46484375 11.69335938 C39.30978453 11.80020356 43.15483524 11.90156024 47 12 C43.01143652 15.32673944 39.80000032 15.4637981 34.75 15.375 C33.93241211 15.36774902 33.11482422 15.36049805 32.27246094 15.35302734 C19.26584194 15.07386326 5.43598273 13.99479892 -7 10 C-6.42424336 6.64749299 -5.40693737 5.06181371 -2.9375 2.75 C-2.38964844 2.22921875 -1.84179688 1.7084375 -1.27734375 1.171875 C-0.64505859 0.59179688 -0.64505859 0.59179688 0 0 Z " fill="#00000D" transform="translate(216,127)"/>
<path d="M0 0 C0.33 0.99 0.66 1.98 1 3 C0.67 3.66 0.34 4.32 0 5 C5.62351414 4.8816703 11.24685448 4.75741605 16.87011719 4.62768555 C18.78284146 4.58439143 20.695603 4.54271244 22.60839844 4.50268555 C25.35883818 4.4448492 28.10909128 4.38119324 30.859375 4.31640625 C31.71368103 4.29969376 32.56798706 4.28298126 33.44818115 4.26576233 C34.24870911 4.24581711 35.04923706 4.22587189 35.87402344 4.20532227 C36.57573669 4.18977798 37.27744995 4.1742337 38.00042725 4.15821838 C40.02246234 4.0541101 40.02246234 4.0541101 42.02349854 3.49107361 C45.00832729 2.74947505 47.94092997 2.94117173 51 3 C51 2.01 51 1.02 51 0 C51.99 0.33 52.98 0.66 54 1 C53.34 1.78375 52.68 2.5675 52 3.375 C49.79798559 5.71512812 49.79798559 5.71512812 50 8 C48.329375 8.185625 48.329375 8.185625 46.625 8.375 C42.96896323 8.6465813 42.96896323 8.6465813 41 11 C38.875 10.625 38.875 10.625 37 10 C37.99 9.01 38.98 8.02 40 7 C25.48 7 10.96 7 -4 7 C-2 3 -2 3 0 0 Z " fill="#3A3F2D" transform="translate(241,72)"/>
<path d="M0 0 C2 2 2 2 2.375 5.4375 C2 9 2 9 0.375 10.9375 C-2.71940283 12.32183811 -4.64986379 12.57023595 -8 12 C-10 9.875 -10 9.875 -11 7 C-10.40382837 3.6216941 -9.90969684 1.7214837 -7.1875 -0.4375 C-4.42649862 -1.14747178 -2.70520799 -0.85427621 0 0 Z " fill="#071E42" transform="translate(404,72)"/>
<path d="M0 0 C0.33 0.99 0.66 1.98 1 3 C-0.7153052 6.19344602 -2.90310283 9.04722644 -5 12 C-4.39953857 11.9285376 -3.79907715 11.8570752 -3.18041992 11.78344727 C5.44671355 10.86906535 14.02674755 10.88623005 22.6875 10.9375 C24.17903494 10.94252856 25.67057154 10.94708905 27.16210938 10.95117188 C30.77477462 10.96206196 34.38737632 10.97925064 38 11 C38 11.33 38 11.66 38 12 C37.16855469 12.06058594 36.33710938 12.12117188 35.48046875 12.18359375 C34.39378906 12.26738281 33.30710938 12.35117188 32.1875 12.4375 C31.10855469 12.51871094 30.02960938 12.59992188 28.91796875 12.68359375 C25.94010095 12.90212461 25.94010095 12.90212461 23 14 C20.64319787 14.08397157 18.28405919 14.10728187 15.92578125 14.09765625 C14.90003242 14.09553383 14.90003242 14.09553383 13.8535614 14.09336853 C11.67316278 14.08777876 9.49286749 14.07522822 7.3125 14.0625 C5.83268378 14.05748367 4.35286594 14.052921 2.87304688 14.04882812 C-0.75133557 14.03781271 -4.3756577 14.02055512 -8 14 C-8 10.18451442 -6.77886379 8.93420636 -4.5625 5.875 C-3.92441406 4.98554687 -3.28632813 4.09609375 -2.62890625 3.1796875 C-1 1 -1 1 0 0 Z " fill="#0D0E03" transform="translate(212,79)"/>
<path d="M0 0 C2.28026312 1.04524611 4.54765538 2.10974635 6.8125 3.1875 C7.45509766 3.47947266 8.09769531 3.77144531 8.75976562 4.07226562 C14.93648498 7.04861226 16.70172112 10.81232609 19 17 C16.78125 17.78515625 16.78125 17.78515625 14 18 C11.71875 16.12109375 11.71875 16.12109375 9.5 13.4375 C8.72785156 12.51839844 7.95570313 11.59929688 7.16015625 10.65234375 C6.44730469 9.77707031 5.73445313 8.90179688 5 8 C3.97933356 6.83318732 2.95853926 5.66648645 1.9375 4.5 C0 2 0 2 0 0 Z " fill="#EBD7A1" transform="translate(314,20)"/>
<path d="M0 0 C0.33 0.99 0.66 1.98 1 3 C-0.53275918 5.27393867 -2.0738752 7.33185833 -3.8125 9.4375 C-9.14846766 15.49045612 -9.14846766 15.49045612 -11 23 C0.55 23.33 12.1 23.66 24 24 C24 24.33 24 24.66 24 25 C10.8 25 -2.4 25 -16 25 C-13.7560166 17.14605809 -13.7560166 17.14605809 -10.25 13.0625 C-9.54359375 12.22074219 -8.8371875 11.37898438 -8.109375 10.51171875 C-7.41328125 9.68285156 -6.7171875 8.85398437 -6 8 C-3.96758815 5.35701064 -1.9787622 2.68332146 0 0 Z " fill="#01236B" transform="translate(257,52)"/>
<path d="M0 0 C8.91 0 17.82 0 27 0 C27 1.65 27 3.3 27 5 C26.67 4.34 26.34 3.68 26 3 C17.09 3 8.18 3 -1 3 C-0.67 2.01 -0.34 1.02 0 0 Z " fill="#747C62" transform="translate(244,32)"/>
<path d="M0 0 C0.99 1.0209375 0.99 1.0209375 2 2.0625 C5.49468234 5.56725347 9.25130779 8.77221788 13 12 C12.34 13.32 11.68 14.64 11 16 C8.5625 15.1875 8.5625 15.1875 6 14 C5.67 13.01 5.34 12.02 5 11 C4.360625 10.773125 3.72125 10.54625 3.0625 10.3125 C0.50678962 8.68613885 0.43234453 7.80464126 -0.3125 4.9375 C-0.539375 3.638125 -0.76625 2.33875 -1 1 C-0.67 0.67 -0.34 0.34 0 0 Z " fill="#AA864D" transform="translate(314,27)"/>
<path d="M0 0 C5.61 0 11.22 0 17 0 C12.59156563 5.29012124 7.92440206 10.18808428 3 15 C2.34 14.67 1.68 14.34 1 14 C2.67401978 10.04322598 5.13149285 7.15535787 8 4 C8.66 4 9.32 4 10 4 C10 3.34 10 2.68 10 2 C6.7 1.67 3.4 1.34 0 1 C0 0.67 0 0.34 0 0 Z " fill="#787953" transform="translate(239,89)"/>
<path d="M0 0 C1.11375 0.1546875 1.11375 0.1546875 2.25 0.3125 C3.3125 2.1875 3.3125 2.1875 4.25 4.3125 C3.92 4.9725 3.59 5.6325 3.25 6.3125 C2.59 6.3125 1.93 6.3125 1.25 6.3125 C0.92 7.3025 0.59 8.2925 0.25 9.3125 C-1.4 9.6425 -3.05 9.9725 -4.75 10.3125 C-5.41 8.6625 -6.07 7.0125 -6.75 5.3125 C-3.42692308 0.38942308 -3.42692308 0.38942308 0 0 Z " fill="#D6BB84" transform="translate(334.75,39.6875)"/>
<path d="M0 0 C0.66 0.33 1.32 0.66 2 1 C-3.65853571 8.54471428 -12.21934873 16.28900881 -21 20 C-21.99 19.67 -22.98 19.34 -24 19 C-23.52433594 18.63390625 -23.04867187 18.2678125 -22.55859375 17.890625 C-14.96632306 12.01815043 -7.48613178 6.00665909 0 0 Z " fill="#212C35" transform="translate(259,96)"/>
<path d="M0 0 C0.33 0.99 0.66 1.98 1 3 C0.67 3.66 0.34 4.32 0 5 C8.58 5 17.16 5 26 5 C25.67 5.66 25.34 6.32 25 7 C15.43 7 5.86 7 -4 7 C-2 3 -2 3 0 0 Z " fill="#4C5133" transform="translate(241,72)"/>
<path d="M0 0 C0.33 0.99 0.66 1.98 1 3 C0.00390625 4.75390625 0.00390625 4.75390625 -1.4375 6.5625 C-3.52365977 8.98756917 -3.52365977 8.98756917 -4 12 C0.95 12 5.9 12 11 12 C10.67 12.66 10.34 13.32 10 14 C4.06 14 -1.88 14 -8 14 C-8 10.18451442 -6.77886379 8.93420636 -4.5625 5.875 C-3.92441406 4.98554687 -3.28632813 4.09609375 -2.62890625 3.1796875 C-1 1 -1 1 0 0 Z " fill="#030200" transform="translate(212,79)"/>
<path d="M0 0 C6.93 0 13.86 0 21 0 C16.5 3.375 16.5 3.375 12.890625 3.29296875 C12.13652344 3.28330078 11.38242188 3.27363281 10.60546875 3.26367188 C9.82816406 3.23853516 9.05085937 3.21339844 8.25 3.1875 C7.45722656 3.17396484 6.66445312 3.16042969 5.84765625 3.14648438 C3.89814436 3.11125223 1.94898374 3.05744821 0 3 C0 2.01 0 1.02 0 0 Z " fill="#000451" transform="translate(242,139)"/>
<path d="M0 0 C5.93174761 2.50451566 7.74157643 5.01952313 10.1875 10.8125 C10.455625 11.534375 10.72375 12.25625 11 13 C7.99656363 12.67440623 7.09711205 12.11191572 5.078125 9.78515625 C4.17320312 8.43744141 4.17320312 8.43744141 3.25 7.0625 C2.63640625 6.16660156 2.0228125 5.27070313 1.390625 4.34765625 C0 2 0 2 0 0 Z " fill="#BF9E66" transform="translate(322,24)"/>
<path d="M0 0 C0.33 0.99 0.66 1.98 1 3 C-0.48657473 5.28497559 -1.97988554 7.32947939 -3.6875 9.4375 C-4.13544922 10.01048828 -4.58339844 10.58347656 -5.04492188 11.17382812 C-7.52724234 14.31376478 -10.09714142 17.2331067 -13 20 C-13.66 19.67 -14.32 19.34 -15 19 C-14.41992188 18.29875 -13.83984375 17.5975 -13.2421875 16.875 C-8.68968727 11.3458908 -4.22570452 5.7834152 0 0 Z " fill="#2F352A" transform="translate(257,52)"/>
<path d="M0 0 C3.78834395 1.26278132 4.22011278 2.52112952 6 6 C6.6875 8.3125 6.6875 8.3125 7 10 C5.33333333 10 3.66666667 10 2 10 C1.01 7.03 0.02 4.06 -1 1 C-0.67 0.67 -0.34 0.34 0 0 Z " fill="#CFAC74" transform="translate(311,18)"/>
<path d="M0 0 C0.82707306 2.36988243 1.12634 3.61730731 0.328125 6.03515625 C-0.02765625 6.70417969 -0.3834375 7.37320313 -0.75 8.0625 C-1.26820313 9.06990234 -1.26820313 9.06990234 -1.796875 10.09765625 C-3.01418522 12.02242923 -4.33078081 13.4602892 -6 15 C-6.99 14.67 -7.98 14.34 -9 14 C-8.67 13.34 -8.34 12.68 -8 12 C-7.34 12 -6.68 12 -6 12 C-5.88785156 11.42765625 -5.77570313 10.8553125 -5.66015625 10.265625 C-4.92776966 7.75210888 -3.86145147 5.94069457 -2.4375 3.75 C-1.98246094 3.04359375 -1.52742188 2.3371875 -1.05859375 1.609375 C-0.70925781 1.07828125 -0.35992187 0.5471875 0 0 Z " fill="#030B28" transform="translate(302,58)"/>
<path d="M0 0 C0.33 1.98 0.66 3.96 1 6 C0.34 6 -0.32 6 -1 6 C-1.66 7.32 -2.32 8.64 -3 10 C-3.99 9.67 -4.98 9.34 -6 9 C-6.33 8.01 -6.66 7.02 -7 6 C-6.02388578 4.99702025 -5.04402202 3.99768827 -4.0625 3 C-3.51722656 2.443125 -2.97195312 1.88625 -2.41015625 1.3125 C-1 0 -1 0 0 0 Z " fill="#181B08" transform="translate(223,120)"/>
<path d="M0 0 C0.33 0.66 0.66 1.32 1 2 C1.66 2.33 2.32 2.66 3 3 C1.47005208 4.23697917 -0.05989583 5.47395833 -1.58984375 6.7109375 C-3.13266437 7.9666391 -3.13266437 7.9666391 -4 10 C-4.99 10 -5.98 10 -7 10 C-6.42424336 6.64749299 -5.40693737 5.06181371 -2.9375 2.75 C-2.38964844 2.22921875 -1.84179688 1.7084375 -1.27734375 1.171875 C-0.64505859 0.59179688 -0.64505859 0.59179688 0 0 Z " fill="#000102" transform="translate(216,127)"/>
<path d="M0 0 C0.66 0 1.32 0 2 0 C2 0.66 2 1.32 2 2 C2.66 2.33 3.32 2.66 4 3 C3.51113445 7.28127713 2.38573844 9.09202543 -0.875 11.875 C-1.57367188 12.49117187 -2.27234375 13.10734375 -2.9921875 13.7421875 C-3.65476562 14.15726563 -4.31734375 14.57234375 -5 15 C-5.99 14.67 -6.98 14.34 -8 14 C-7.33871094 13.49210937 -6.67742187 12.98421875 -5.99609375 12.4609375 C-3.48095047 10.41042374 -1.1571551 8.42679948 1 6 C1.29878503 2.58428175 1.29878503 2.58428175 0 0 Z " fill="#041534" transform="translate(411,99)"/>
<path d="M0 0 C0 4.33685836 -2.08014014 5.9443327 -5 9 C-6.66666667 9 -8.33333333 9 -10 9 C-8.15478757 4.88375688 -6.49029791 2.65850373 -2.3125 0.8125 C-1.549375 0.544375 -0.78625 0.27625 0 0 Z " fill="#011430" transform="translate(424,41)"/>
<path d="M0 0 C2.875 -0.1875 2.875 -0.1875 6 0 C6.66 0.99 7.32 1.98 8 3 C8.99 2.01 9.98 1.02 11 0 C11.66 0.33 12.32 0.66 13 1 C11.71937515 2.7074998 10.38232443 4.37373596 9 6 C8.34 6 7.68 6 7 6 C6.67 6.99 6.34 7.98 6 9 C5.67 9 5.34 9 5 9 C5 6.36 5 3.72 5 1 C3.35 1 1.7 1 0 1 C0 0.67 0 0.34 0 0 Z " fill="#031335" transform="translate(469,86)"/>
<path d="M0 0 C0.68707555 2.49064888 1 4.37886292 1 7 C2.65 7.33 4.3 7.66 6 8 C6 8.33 6 8.66 6 9 C2.37 9 -1.26 9 -5 9 C-3.44455189 5.88910379 -1.80979645 2.96148509 0 0 Z " fill="#C4C533" transform="translate(212,82)"/>
<path d="M0 0 C1.77155654 0.11429397 3.54226229 0.24183037 5.3125 0.375 C6.79169922 0.47941406 6.79169922 0.47941406 8.30078125 0.5859375 C11 1 11 1 14 3 C9.38 3.33 4.76 3.66 0 4 C0 2.68 0 1.36 0 0 Z " fill="#0B0B0C" transform="translate(271,32)"/>
<path d="M0 0 C3.465 1.98 3.465 1.98 7 4 C5.75 5.5625 5.75 5.5625 4 7 C1.8125 6.6875 1.8125 6.6875 0 6 C-1.125 2.25 -1.125 2.25 0 0 Z " fill="#9E7C49" transform="translate(329,43)"/>
<path d="M0 0 C1.32 0.33 2.64 0.66 4 1 C1.36 3.64 -1.28 6.28 -4 9 C-4.33 7.68 -4.66 6.36 -5 5 C-2.8125 2.1875 -2.8125 2.1875 0 0 Z " fill="#302E11" transform="translate(228,114)"/>
<path d="M0 0 C0.99 0.66 1.98 1.32 3 2 C-0.3 4.64 -3.6 7.28 -7 10 C-7 7 -7 7 -5.46875 5.17578125 C-4.8190625 4.56089844 -4.169375 3.94601563 -3.5 3.3125 C-2.8503125 2.68988281 -2.200625 2.06726563 -1.53125 1.42578125 C-0.77328125 0.72001953 -0.77328125 0.72001953 0 0 Z " fill="#C6C434" transform="translate(231,115)"/>
<path d="M0 0 C0.66 0 1.32 0 2 0 C0.6302836 3.99500618 -1.25722422 6.80009492 -4 10 C-4.33 9.01 -4.66 8.02 -5 7 C-2 2 -2 2 0 0 Z " fill="#19170A" transform="translate(217,71)"/>
<path d="M0 0 C0.33 0.99 0.66 1.98 1 3 C4.63 3.33 8.26 3.66 12 4 C12 4.33 12 4.66 12 5 C10.22925083 5.02705729 8.45838289 5.04642195 6.6875 5.0625 C5.70136719 5.07410156 4.71523437 5.08570313 3.69921875 5.09765625 C1 5 1 5 -2 4 C-1.34 2.68 -0.68 1.36 0 0 Z " fill="#00093E" transform="translate(214,133)"/>
<path d="M0 0 C0.99 0.33 1.98 0.66 3 1 C-1.625 5.875 -1.625 5.875 -5 7 C-5 6.34 -5 5.68 -5 5 C-5.66 4.34 -6.32 3.68 -7 3 C-4.69 3 -2.38 3 0 3 C0 2.01 0 1.02 0 0 Z " fill="#5E5F45" transform="translate(292,72)"/>
<path d="M0 0 C3.96 1.98 3.96 1.98 8 4 C8 4.99 8 5.98 8 7 C4.66272214 5.82744291 2.22562513 4.81131596 0 2 C0 1.34 0 0.68 0 0 Z " fill="#F1E0AE" transform="translate(314,20)"/>
<path d="M0 0 C0.66 0.33 1.32 0.66 2 1 C0.35 2.98 -1.3 4.96 -3 7 C-4.32 6.67 -5.64 6.34 -7 6 C-4.69 4.02 -2.38 2.04 0 0 Z " fill="#394131" transform="translate(259,96)"/>
<path d="M0 0 C5.61 0 11.22 0 17 0 C16.01 1.485 16.01 1.485 15 3 C14.34 3 13.68 3 13 3 C13 2.34 13 1.68 13 1 C8.71 1 4.42 1 0 1 C0 0.67 0 0.34 0 0 Z " fill="#6E7220" transform="translate(239,89)"/>
<path d="M0 0 C5.28 0 10.56 0 16 0 C14.68 1.32 13.36 2.64 12 4 C12 3.01 12 2.02 12 1 C8.04 1 4.08 1 0 1 C0 0.67 0 0.34 0 0 Z " fill="#E7E23D" transform="translate(266,78)"/>
<path d="M0 0 C0.33 0.99 0.66 1.98 1 3 C0.01 3.33 -0.98 3.66 -2 4 C-2.33 4.66 -2.66 5.32 -3 6 C-4.98 5.34 -6.96 4.68 -9 4 C-9 3.67 -9 3.34 -9 3 C-8.43410156 2.86722656 -7.86820312 2.73445313 -7.28515625 2.59765625 C-6.18494141 2.33275391 -6.18494141 2.33275391 -5.0625 2.0625 C-4.33160156 1.88847656 -3.60070312 1.71445313 -2.84765625 1.53515625 C-1.00030102 1.16112431 -1.00030102 1.16112431 0 0 Z " fill="#010E29" transform="translate(489,93)"/>
<path d="M0 0 C0.99 0.33 1.98 0.66 3 1 C2.525625 1.886875 2.05125 2.77375 1.5625 3.6875 C0.20262851 6.57042756 -0.54060386 8.87610623 -1 12 C-1.33 12 -1.66 12 -2 12 C-1.85904936 10.3745692 -1.71207913 8.74965949 -1.5625 7.125 C-1.48128906 6.22007813 -1.40007812 5.31515625 -1.31640625 4.3828125 C-1 2 -1 2 0 0 Z " fill="#03122F" transform="translate(316,82)"/>
<path d="M0 0 C3.36720387 1.39332574 4.9859524 2.9789286 7 6 C6.01 6.33 5.02 6.66 4 7 C1 5 1 5 0.3125 2.375 C0.209375 1.59125 0.10625 0.8075 0 0 Z " fill="#D7B879" transform="translate(323,33)"/>
<path d="M0 0 C1.65 0 3.3 0 5 0 C5.66 1.32 6.32 2.64 7 4 C6.34 4.66 5.68 5.32 5 6 C3.35 4.02 1.7 2.04 0 0 Z " fill="#A28551" transform="translate(332,40)"/>
<path d="M0 0 C2.1875 0.3125 2.1875 0.3125 4 1 C2.75 2.5625 2.75 2.5625 1 4 C-1.1875 3.6875 -1.1875 3.6875 -3 3 C-1.75 1.4375 -1.75 1.4375 0 0 Z " fill="#002278" transform="translate(278,83)"/>
<path d="M0 0 C0.66 0 1.32 0 2 0 C2 1.65 2 3.3 2 5 C1.67 4.34 1.34 3.68 1 3 C-1.97 3 -4.94 3 -8 3 C-8 2.67 -8 2.34 -8 2 C-6.865625 1.855625 -5.73125 1.71125 -4.5625 1.5625 C-1.19222799 1.38828522 -1.19222799 1.38828522 0 0 Z " fill="#75774E" transform="translate(269,32)"/>
</svg>
